PathFileType	4	(X/Y/Z)	C:/Users/beibeiliu/ov580/test_trc/User3\sequence.9_training_dense_left.trc
DataRate	CameraRate	NumFrames	NumMarkers	Units	OrigDataRate	OrigDataStartFrame	OrigNumFrames
120	120	13	19	mm	120	128	153
Frame#	Time	ThumbCMC			ThumbMCP			ThumbIP			ThumbTip			IndexMCP			IndexPIP			IndexTip			MiddleMCP			MiddlePIP			MiddleTip			RingMCP			RingPIP			RingTip			PinkyMCP			PinkyPIP			PinkyTip			BackHand1			BackHand2			BackHand3	
		X0	Y0	Z0	X1	Y1	Z1	X2	Y2	Z2	X3	Y3	Z3	X4	Y4	Z4	X5	Y5	Z5	X6	Y6	Z6	X7	Y7	Z7	X8	Y8	Z8	X9	Y9	Z9	X10	Y10	Z10	X11	Y11	Z11	X12	Y12	Z12	X13	Y13	Z13	X14	Y14	Z14	X15	Y15	Z15	X16	Y16	Z16	X17	Y17	Z17	X18	Y18	Z18	
127	1.05833	-139.916	-48.015	6.22866	-118.367	-71.2991	-6.23361	-112.393	-94.6047	-24.7223	-113.291	-119.235	-40.7872	-150.665	-77.3491	-64.9049	-136.406	-103.108	-67.5711	-131.535	-128.882	-45.5092	-173.843	-73.5671	-74.7496	-168.028	-93.8575	-94.1379	-158.935	-121.76	-109.976	-195.313	-79.0267	-64.1221	-194.298	-95.1933	-83.1002	-184.27	-118.572	-101.905	-214.105	-86.9826	-42.1627	-215.204	-101.463	-60.7264	-207.469	-120.902	-77.1106	-201.799	-47.4534	-15.8275	-205.7	-37.6255	7.18863	-176.58	-33.0669	-10.7001	
128	1.06667	-145.386	-36.436	7.46169	-117.655	-52.8507	-3.72276	-101.58	-74.6196	-20.0266	-95.1947	-96.4439	-28.5982	-146.5	-72.0469	-59.655	-122.221	-95.8798	-60.787	-107.67	-107.887	-39.7082	-168.757	-81.6727	-69.9268	-154.122	-97.2184	-88.9318	-137.239	-123.01	-99.321	-186.052	-92.1147	-59.6611	-178.881	-106.169	-75.9	-161.365	-129.09	-91.2957	-198.245	-100.227	-34.3	-195.152	-119.452	-53.1926	-179.764	-136.44	-67.8574	-202.941	-61.3335	-15.5555	-211.538	-48.0199	11.4061	-182.824	-32.4057	-7.68047	
129	1.075	-154.463	-24.3007	5.72295	-123.887	-32.0569	-4.75968	-99.1376	-46.607	-21.2234	-89.2484	-64.0268	-25.4563	-141.648	-59.5747	-57.5929	-108.971	-75.3094	-56.8546	-93.0456	-80.5476	-35.8291	-162.227	-82.2199	-64.0358	-139.378	-92.7849	-84.047	-114.505	-109.55	-94.538	-171.831	-97.2056	-53.5478	-159.392	-110.586	-71.1122	-137.175	-125.225	-83.3775	-181.637	-109.79	-29.0771	-169.881	-123.3	-46.4606	-152.466	-137.588	-60.3447	-200.077	-70.135	-12.767	-211.006	-57.879	11.6824	-188.994	-36.2602	-10.2341	
130	1.08333	-166.715	-16.9948	2.39671	-135.149	-11.6766	-10.7079	-108.2	-17.3142	-23.1565	-89.3658	-30.4108	-30.3983	-143.344	-47.0402	-57.7894	-108.806	-51.963	-58.5125	-89.2446	-51.4151	-33.2323	-154.018	-72.6323	-64.2915	-131.893	-78.6952	-82.1824	-101.986	-83.9011	-93.0622	-161.031	-93.0982	-47.3309	-140.117	-99.3337	-71.0973	-115.587	-108.657	-83.3128	-160.739	-105.947	-27.8989	-147.163	-116.314	-41.6729	-126.767	-127.178	-53.6427	-193.175	-78.805	-13.27	-205.184	-69.0895	14.8699	-196.964	-40.7017	-7.14858	
131	1.09167	-179.835	-15.3229	2.84944	-153.508	-0.52188	-13.5437	-128.722	5.19974	-28.1574	-105.454	-3.33976	-36.8824	-147.003	-38.6254	-61.011	-118.713	-30.2276	-63.8965	-97.656	-24.9642	-41.081	-151.49	-66.8977	-66.787	-129.329	-64.6321	-85.1585	-97.7866	-62.1918	-98.0747	-148.828	-85.983	-49.0878	-130.374	-91.2315	-69.9779	-106.873	-92.2009	-82.625	-146.061	-95.5345	-27.0701	-127.957	-105.811	-40.3433	-105.318	-111.444	-54.855	-183.734	-81.8622	-7.72408	-199.408	-74.4522	15.6205	-199.434	-48.378	-5.45218	
132	1.1	-190.417	-18.7259	-1.23569	-171.301	4.3349	-20.3978	-150.321	12.7745	-39.3262	-128.897	12.8769	-47.7637	-156.131	-37.6002	-63.3404	-128.734	-20.9556	-68.5492	-112.467	-4.82445	-49.3173	-152.211	-64.2756	-69.3866	-132.089	-58.934	-89.1689	-104.451	-46.6215	-106.394	-145.727	-78.584	-53.8916	-125.609	-81.5385	-73.8763	-106.814	-75.1986	-90.491	-136.029	-87.7425	-29.0608	-116.193	-92.1338	-45.4252	-94.5495	-90.5411	-58.4581	-174.441	-81.0761	-9.8899	-190.982	-79.0703	20.9914	-199.465	-55.9369	-10.3432	
133	1.10833	-202.975	-26.8638	-3.04808	-192.854	-4.53865	-21.9467	-174.327	6.66015	-43.9737	-152.161	12.0138	-60.732	-171.288	-43.3417	-65.799	-148.519	-21.4661	-73.8948	-133.742	1.48381	-56.8646	-158.925	-70.4807	-68.5591	-146.371	-59.4446	-93.4847	-122.851	-46.8019	-112.154	-144.694	-83.8661	-49.4427	-132.66	-79.7458	-75.2489	-112.882	-69.798	-97.2254	-130.11	-86.2767	-28.6843	-113.555	-87.3392	-45.8198	-99.1984	-80.2129	-63.0615	-172.605	-87.6167	-3.85705	-182.034	-86.4379	23.5204	-199.858	-69.3412	-2.94501	
134	1.11667	-213.11	-42.5282	3.07775	-208.267	-22.7335	-25.4133	-197.887	-9.46646	-49.0751	-181.054	-1.37832	-64.7287	-186.816	-59.3736	-65.6587	-175.16	-28.4634	-79.6144	-160.322	-8.60129	-67.7133	-172.045	-82.485	-68.0091	-161.658	-75.5094	-92.576	-148.046	-54.2288	-119.98	-151.349	-90.5545	-50.7985	-142.848	-87.4677	-78.4182	-125.956	-76.3252	-102.017	-132.742	-89.0428	-33.8553	-122.226	-86.0657	-54.3823	-110.014	-79.2703	-72.7831	-168.505	-93.258	-4.89081	-178.375	-93.3821	23.1054	-203.435	-83.0137	-0.04225	
135	1.125	-222.067	-58.2733	10.257	-225.217	-40.8624	-19.6924	-218.668	-30.8715	-50.2802	-207.18	-22.3852	-70.7836	-202.227	-79.8191	-64.2609	-193.383	-54.7777	-80.9921	-182.893	-27.9681	-74.6197	-184.537	-103.384	-61.8062	-181.413	-98.2431	-89.5277	-167.177	-81.1532	-121.336	-165.874	-104.735	-51.6523	-154.38	-105.767	-78.4627	-148.514	-95.9166	-103.667	-144.745	-96.2218	-31.0553	-131.906	-98.2357	-55.9738	-122.595	-94.1019	-75.9219	-174.02	-103.93	2.07607	-171.891	-99.8438	29.2237	-206.084	-95.8747	9.83975	
136	1.13333	-223.733	-73.9536	11.8839	-232.893	-61.4297	-18.7755	-234.96	-53.7905	-44.7957	-225.211	-51.4145	-71.3767	-217.924	-106.42	-54.8648	-212.483	-87.1078	-77.4339	-203.284	-59.7453	-79.5885	-198.762	-129.05	-51.5956	-199.203	-128.014	-82.1154	-195.333	-114.474	-114.965	-175.338	-126.29	-41.4718	-172.556	-131.139	-67.0671	-166.111	-124.997	-98.8467	-153.266	-117.915	-32.4311	-143.439	-119.601	-52.0572	-139.32	-118.062	-79.0514	-180.035	-115.869	11.5196	-174.347	-108.75	37.0602	-208.027	-109.324	20.3434	
137	1.14167	-229.521	-79.9851	18.4724	-240.062	-69.6678	-11.1465	-241.564	-70.542	-42.756	-235.667	-71.341	-67.183	-234.142	-124.376	-38.4769	-234.788	-106.971	-69.0571	-224.928	-79.9984	-77.4989	-215.554	-142.73	-35.6532	-220.081	-148.202	-69.5315	-215.227	-140.969	-101.872	-189.799	-142.647	-30.606	-189.14	-150.627	-57.8931	-191.116	-147.217	-89.9889	-169.199	-133.366	-25.893	-162.594	-138.624	-49.0687	-160.696	-141.026	-69.3837	-188.795	-126.413	19.6087	-181.047	-111.936	43.442	-218.871	-114.535	30.6742	
138	1.15	-236.265	-73.8567	25.0437	-246.038	-68.8471	-6.85787	-255.175	-71.3981	-40.5862	-250.482	-75.5108	-62.8766	-257.149	-126.305	-28.4941	-254.25	-115.438	-60.2405	-242.31	-89.4617	-73.4255	-241.757	-150.645	-25.698	-250.058	-154.698	-55.8458	-249.757	-151.129	-87.6847	-218.75	-150.307	-19.4634	-224.134	-160.093	-47.1009	-220.968	-160.622	-75.6425	-196.673	-145.735	-19.7434	-191.276	-154.147	-42.2585	-192.151	-157.257	-61.7645	-206.309	-134.539	25.3353	-194.727	-113.651	50.5415	-233.528	-111.221	37.9008	
139	1.15833	-243.629	-61.0676	25.6017	-252.772	-56.6799	-6.39825	-260.361	-60.1916	-35.2265	-258.58	-67.4538	-55.2597	-280.348	-108.646	-20.0306	-276.532	-100.428	-52.2877	-258.341	-87.0798	-66.7201	-270.979	-139.539	-16.3347	-281.55	-141.917	-40.1369	-285.112	-139.219	-74.253	-249.642	-144.519	-13.206	-258.257	-154.493	-39.9292	-261.98	-153.282	-67.5812	-222.377	-144.479	-8.33833	-224.676	-155.41	-31.1919	-226.818	-159.344	-57.5381	-227.01	-123.927	34.5157	-212.389	-114.747	52.3723	-242.803	-97.8085	45.4412	
